# xmcd CD database file generated by Grip 2.96
# 
# Track frame offsets:
#       150
#       12083
#       25948
#       43417
#       57954
#       72575
#       94236
#       106609
#       119538
#       134979
#       147460
#       160009
# 
# Disc length: 2291 seconds
# 
# Revision: 0
# Processed by: cddbd v1.4PL0 Copyright (c) Steve Scherf et al.
# Submitted via: Grip 2.96
# 
DISCID=b108f10c
DTITLE=Heartstrings - Heartstrings
DYEAR=1900
DGENRE=
TTITLE0=Can You Hear
TTITLE1=Woman CHild
TTITLE2=Right Up the Wrong Road
TTITLE3=Cherry Blossoms in the Springtime
TTITLE4=Love Oh Love
TTITLE5=Native Rose
TTITLE6=Hopscotch
TTITLE7=Church Building
TTITLE8=Love for this Girl
TTITLE9=Sometimes Angels Cry
TTITLE10=Carolina Country
TTITLE11=Are You Trusting In Sweet Jesus
EXTD=
EXTT0=
EXTT1=
EXTT2=
EXTT3=
EXTT4=
EXTT5=
EXTT6=
EXTT7=
EXTT8=
EXTT9=
EXTT10=
EXTT11=
PLAYORDER=
